<svg width="58" height="58" viewBox="0 0 58 58" fill="none" xmlns="http://www.w3.org/2000/svg">
<circle cx="29" cy="29" r="29" fill="#EEE1E2" fill-opacity="0.1"/>
<path d="M43.8672 18.4321C43.8672 18.4706 43.8536 18.5091 43.8458 18.5475C43.838 18.586 43.8264 18.6283 43.8147 18.6687C43.8071 18.7032 43.7973 18.7373 43.7856 18.7707C43.7739 18.8072 43.7603 18.8438 43.7468 18.8803C43.7332 18.9168 43.7196 18.9534 43.704 18.9899C43.6885 19.0265 43.671 19.0611 43.6535 19.0957C43.636 19.1304 43.636 19.1304 43.6283 19.1496L43.5797 19.2342C43.5128 19.3511 43.4354 19.4618 43.3486 19.5651C43.3156 19.6055 43.2806 19.6459 43.2456 19.6843L43.1582 19.7709L43.067 19.8555L42.9698 19.9344L42.8708 20.0075C42.8261 20.0364 42.7834 20.0671 42.7387 20.0921C42.6238 20.167 42.5022 20.2313 42.3755 20.2845L42.2823 20.3191L42.226 20.3384L42.1133 20.3711L41.9987 20.3999L41.8841 20.423L41.7773 20.4384C41.7346 20.4384 41.6938 20.448 41.6511 20.4499C41.6083 20.4518 41.5734 20.4499 41.5345 20.4499C41.3429 20.4554 41.1512 20.4386 40.9635 20.3999H40.9305H40.8975L40.8411 20.3845C40.7892 20.3727 40.738 20.3579 40.6877 20.3403L40.6372 20.323L40.5032 20.2691L40.4605 20.2499C40.4473 20.2461 40.4348 20.2402 40.4236 20.2326L40.3828 20.2133C40.3413 20.1941 40.3006 20.1729 40.2604 20.1498L40.1225 20.0652L40.0293 20.0017L39.9827 19.9652C39.9509 19.9418 39.9204 19.9168 39.8914 19.8902C39.8481 19.8551 39.8066 19.8178 39.7671 19.7786L39.6894 19.6978C39.6761 19.6859 39.6638 19.6731 39.6525 19.6593C38.4507 18.2311 36.9732 17.0548 35.3065 16.1993C33.6398 15.3437 31.8175 14.8262 29.9463 14.677C28.0751 14.5279 26.1927 14.75 24.4093 15.3305C22.6259 15.911 20.9774 16.8381 19.5604 18.0575C18.1434 19.277 16.9863 20.7642 16.157 22.4321C15.3277 24.1001 14.8429 25.9151 14.7309 27.771C14.6189 29.6269 14.882 31.4862 15.5047 33.2401C16.1275 34.994 17.0974 36.6071 18.3577 37.9851C17.934 37.5004 17.3333 37.2023 16.6876 37.1563C16.042 37.1103 15.4044 37.3202 14.915 37.7398C14.4257 38.1594 14.1247 38.7544 14.0782 39.3938C14.0318 40.0332 14.2437 40.6647 14.6674 41.1493C13.0302 39.2872 11.7793 37.124 10.9862 34.7832C10.1931 32.4423 9.87334 29.9697 10.0451 27.5064C10.3921 22.5317 12.7202 17.8972 16.5174 14.6225C20.3146 11.3478 25.2697 9.70112 30.2928 10.0447C35.3159 10.3883 39.9954 12.6941 43.302 16.4547L43.3369 16.4951L43.4069 16.5817V16.5913C43.4418 16.6374 43.4729 16.6817 43.502 16.7278C43.5312 16.774 43.5448 16.7952 43.5642 16.8279L43.5933 16.8798L43.6458 16.9798C43.6705 17.0273 43.6926 17.0761 43.7118 17.126C43.7293 17.1683 43.7448 17.2126 43.7603 17.2549C43.7759 17.2972 43.7603 17.2837 43.7739 17.2972L43.7856 17.3357C43.791 17.3508 43.7956 17.3662 43.7992 17.3819C43.7992 17.3819 43.8089 17.4184 43.8128 17.4357C43.8167 17.453 43.8264 17.4876 43.8303 17.5127L43.8419 17.5665C43.8516 17.6184 43.8594 17.6704 43.8672 17.7223V17.78C43.8672 17.7916 43.8672 17.8031 43.8672 17.8147C43.8672 17.8262 43.8672 17.8358 43.8672 17.8474C43.891 18.0416 43.891 18.2379 43.8672 18.4321Z" fill="url(#paint0_linear_2896_742)"/>
<path d="M41.4966 43.0211C39.6171 44.643 37.4334 45.8825 35.0702 46.6687C32.707 47.4548 30.2105 47.7723 27.7235 47.603C25.2364 47.4337 22.8073 46.7808 20.575 45.6818C18.3426 44.5827 16.3507 43.059 14.713 41.1975L14.678 41.1571C14.2747 40.672 14.0786 40.0501 14.1315 39.4238C14.1845 38.7976 14.4823 38.2166 14.9616 37.8047C15.4408 37.3928 16.0635 37.1826 16.697 37.2188C17.3305 37.255 17.9246 37.5349 18.3528 37.9987L18.3877 38.0391C20.8477 40.8332 24.3276 42.5451 28.062 42.7981C31.7964 43.0512 35.4793 41.8247 38.3006 39.3884C41.1219 36.9522 42.8505 33.5057 43.106 29.8073C43.3615 26.1088 42.1231 22.4613 39.6631 19.6672C39.8729 19.9056 40.1281 20.1008 40.414 20.2416C40.7 20.3824 41.0111 20.4661 41.3297 20.4878C41.6483 20.5095 41.9681 20.4688 42.2709 20.3681C42.5736 20.2674 42.8533 20.1087 43.0941 19.9009C43.3349 19.6931 43.532 19.4404 43.6741 19.1572C43.8163 18.874 43.9008 18.5658 43.9227 18.2503C43.9446 17.9348 43.9035 17.6181 43.8019 17.3183C43.7002 17.0184 43.5399 16.7414 43.3301 16.5029C46.6362 20.2609 48.3002 25.1653 47.9564 30.1379C47.6126 35.1106 45.2891 39.7445 41.4966 43.0211Z" fill="url(#paint1_linear_2896_742)"/>
<path d="M35.7084 23.4483C35.7079 23.0114 35.5323 22.5926 35.2202 22.2839C34.9081 21.9752 34.485 21.8018 34.0439 21.8018H22.3477V25.0968H34.0439C34.2625 25.0968 34.4789 25.0542 34.6809 24.9713C34.8828 24.8885 35.0663 24.7671 35.2209 24.614C35.3754 24.4609 35.498 24.2792 35.5817 24.0792C35.6653 23.8792 35.7084 23.6648 35.7084 23.4483Z" fill="url(#paint2_linear_2896_742)"/>
<path d="M30.747 27.1641H19.0508V30.4591H30.747C31.1784 30.4445 31.5871 30.2645 31.8871 29.9572C32.187 29.6498 32.3547 29.239 32.3547 28.8116C32.3547 28.3841 32.187 27.9734 31.8871 27.666C31.5871 27.3586 31.1784 27.1787 30.747 27.1641Z" fill="url(#paint3_linear_2896_742)"/>
<path d="M34.0439 32.5244H22.3477V35.8194H34.0439C34.2671 35.827 34.4896 35.79 34.6981 35.7106C34.9066 35.6312 35.0968 35.5111 35.2574 35.3573C35.4181 35.2036 35.5458 35.0194 35.633 34.8158C35.7203 34.6121 35.7652 34.3931 35.7652 34.1719C35.7652 33.9507 35.7203 33.7317 35.633 33.5281C35.5458 33.3244 35.4181 33.1403 35.2574 32.9865C35.0968 32.8328 34.9066 32.7127 34.6981 32.6333C34.4896 32.5539 34.2671 32.5168 34.0439 32.5244Z" fill="url(#paint4_linear_2896_742)"/>
<defs>
<linearGradient id="paint0_linear_2896_742" x1="13.6652" y1="40.478" x2="34.2214" y2="9.62658" gradientUnits="userSpaceOnUse">
<stop stop-color="#EEE1E2" stop-opacity="0"/>
<stop offset="1" stop-color="#EEE1E2"/>
</linearGradient>
<linearGradient id="paint1_linear_2896_742" x1="23.5196" y1="47.8365" x2="44.0777" y2="16.9826" gradientUnits="userSpaceOnUse">
<stop stop-color="#EEE1E2"/>
<stop offset="1" stop-color="#EEE1E2" stop-opacity="0"/>
</linearGradient>
<linearGradient id="paint2_linear_2896_742" x1="22.3477" y1="23.4483" x2="35.7084" y2="23.4483" gradientUnits="userSpaceOnUse">
<stop stop-color="#EEE1E2" stop-opacity="0"/>
<stop offset="1" stop-color="#EEE1E2"/>
</linearGradient>
<linearGradient id="paint3_linear_2896_742" x1="19.0508" y1="28.8106" x2="32.4096" y2="28.8106" gradientUnits="userSpaceOnUse">
<stop stop-color="#EEE1E2" stop-opacity="0"/>
<stop offset="1" stop-color="#EEE1E2"/>
</linearGradient>
<linearGradient id="paint4_linear_2896_742" x1="22.3477" y1="34.1729" x2="35.7084" y2="34.1729" gradientUnits="userSpaceOnUse">
<stop stop-color="#EEE1E2" stop-opacity="0"/>
<stop offset="1" stop-color="#EEE1E2"/>
</linearGradient>
</defs>
</svg>
