<?xml version="1.0" encoding="UTF-8" standalone="no"?>
<svg
   width="42"
   height="37"
   viewBox="0 0 42 37"
   fill="none"
   version="1.1"
   id="svg1"
   sodipodi:docname="keyboard_wide2.svg"
   inkscape:version="1.3 (0e150ed6c4, 2023-07-21)"
   xmlns:inkscape="http://www.inkscape.org/namespaces/inkscape"
   xmlns:sodipodi="http://sodipodi.sourceforge.net/DTD/sodipodi-0.dtd"
   xmlns="http://www.w3.org/2000/svg"
   xmlns:svg="http://www.w3.org/2000/svg">
  <defs
     id="defs1" />
  <sodipodi:namedview
     id="namedview1"
     pagecolor="#ffffff"
     bordercolor="#000000"
     borderopacity="0.25"
     inkscape:showpageshadow="2"
     inkscape:pageopacity="0.0"
     inkscape:pagecheckerboard="0"
     inkscape:deskcolor="#d1d1d1"
     showgrid="false"
     inkscape:zoom="20.815966"
     inkscape:cx="10.736951"
     inkscape:cy="18.135118"
     inkscape:window-width="1920"
     inkscape:window-height="1009"
     inkscape:window-x="-8"
     inkscape:window-y="-8"
     inkscape:window-maximized="1"
     inkscape:current-layer="svg1" />
  <path
     d="m 15.319769,15.75213 h 1 m 3.5,0 h 1 m 3.5,0 h 1 m -10,5 h 10 m -2.5,-10 h -5 c -3.28748,0 -4.93122,0 -6.03757,0.90796 -0.20254,0.16622 -0.38825,0.35193 -0.55447,0.55447 -0.90796,1.10635 -0.90796,2.75007 -0.90796,6.03757 0,3.2875 0,4.9312 0.90796,6.0376 0.16622,0.2025 0.35193,0.3882 0.55447,0.5544 1.10635,0.908 2.75009,0.908 6.03757,0.908 h 5 c 3.2875,0 4.9312,0 6.0376,-0.908 0.2025,-0.1662 0.3882,-0.3519 0.5544,-0.5544 0.908,-1.1064 0.908,-2.7501 0.908,-6.0376 0,-3.2875 0,-4.93122 -0.908,-6.03757 -0.1662,-0.20254 -0.3519,-0.38825 -0.5544,-0.55447 -1.1064,-0.90796 -2.7501,-0.90796 -6.0376,-0.90796 z"
     stroke="#EEE1E2"
     stroke-width="1.5"
     stroke-linecap="round"
     id="path1" />
</svg>
