<svg width="58" height="58" viewBox="0 0 58 58" fill="none" xmlns="http://www.w3.org/2000/svg">
<rect width="58" height="58" rx="29" fill="#1748DC"/>
<path d="M43.5732 35.201L42.5072 34.5482L42.5072 34.5482L43.5732 35.201ZM41.9823 37.799L43.0483 38.4518L43.0483 38.4518L41.9823 37.799ZM14.4268 22.799L13.3608 22.1463L13.3608 22.1463L14.4268 22.799ZM16.0177 20.201L17.0837 20.8537L17.0838 20.8537L16.0177 20.201ZM20.3642 19.1029L20.9618 18.005L20.9618 18.005L20.3642 19.1029ZM15.5914 26.8971L14.9938 27.995L14.9938 27.995L15.5914 26.8971ZM37.6358 38.8971L37.0382 39.995L37.0382 39.995L37.6358 38.8971ZM42.4086 31.1029L41.8109 32.2007L41.8109 32.2007L42.4086 31.1029ZM16.0177 37.799L14.9517 38.4518L14.9517 38.4518L16.0177 37.799ZM14.4268 35.201L15.4928 34.5482L15.4928 34.5482L14.4268 35.201ZM41.9823 20.201L43.0483 19.5482L43.0483 19.5482L41.9823 20.201ZM43.5732 22.799L42.5072 23.4518L42.5072 23.4518L43.5732 22.799ZM42.4086 26.8971L43.0062 27.995L43.0062 27.995L42.4086 26.8971ZM37.6358 19.1029L38.2334 20.2008L38.2334 20.2008L37.6358 19.1029ZM15.5914 31.1029L16.1891 32.2008L16.1891 32.2008L15.5914 31.1029ZM20.3642 38.8971L19.7666 37.7992L19.7666 37.7992L20.3642 38.8971ZM37.4667 19.195L36.869 18.0971L36.869 18.0971L37.4667 19.195ZM20.5333 19.1949L19.9357 20.2928L19.9357 20.2928L20.5333 19.1949ZM37.4667 38.805L38.0643 37.7072L38.0643 37.7072L37.4667 38.805ZM20.5333 38.8051L21.131 39.9029L21.131 39.9029L20.5333 38.8051ZM27.4091 15.25H30.5909V12.75H27.4091V15.25ZM30.5909 42.75H27.4091V45.25H30.5909V42.75ZM27.4091 42.75C26.2718 42.75 25.4773 41.8982 25.4773 41H22.9773C22.9773 43.4155 25.0318 45.25 27.4091 45.25V42.75ZM32.5227 41C32.5227 41.8982 31.7282 42.75 30.5909 42.75V45.25C32.9682 45.25 35.0227 43.4155 35.0227 41H32.5227ZM30.5909 15.25C31.7282 15.25 32.5227 16.1018 32.5227 17H35.0227C35.0227 14.5845 32.9682 12.75 30.5909 12.75V15.25ZM27.4091 12.75C25.0318 12.75 22.9773 14.5845 22.9773 17H25.4773C25.4773 16.1018 26.2718 15.25 27.4091 15.25V12.75ZM42.5072 34.5482L40.9163 37.1463L43.0483 38.4518L44.6392 35.8537L42.5072 34.5482ZM15.4928 23.4518L17.0837 20.8537L14.9517 19.5482L13.3608 22.1463L15.4928 23.4518ZM17.0838 20.8537C17.5981 20.0137 18.8009 19.6751 19.7666 20.2008L20.9618 18.005C18.8838 16.8738 16.1946 17.5185 14.9517 19.5482L17.0838 20.8537ZM16.1891 25.7992C15.2624 25.2948 15.0072 24.2449 15.4928 23.4518L13.3608 22.1463C12.0892 24.2229 12.8768 26.8426 14.9938 27.995L16.1891 25.7992ZM40.9163 37.1463C40.4019 37.9863 39.1991 38.3249 38.2334 37.7992L37.0382 39.995C39.1162 41.1262 41.8054 40.4815 43.0483 38.4518L40.9163 37.1463ZM44.6392 35.8537C45.9108 33.7771 45.1232 31.1574 43.0062 30.005L41.8109 32.2007C42.7376 32.7052 42.9928 33.755 42.5072 34.5482L44.6392 35.8537ZM17.0837 37.1463L15.4928 34.5482L13.3608 35.8537L14.9517 38.4518L17.0837 37.1463ZM40.9163 20.8537L42.5072 23.4518L44.6392 22.1463L43.0483 19.5482L40.9163 20.8537ZM42.5072 23.4518C42.9928 24.245 42.7376 25.2948 41.8109 25.7992L43.0062 27.995C45.1232 26.8426 45.9108 24.2229 44.6392 22.1463L42.5072 23.4518ZM38.2334 20.2008C39.1991 19.6751 40.4019 20.0137 40.9163 20.8537L43.0483 19.5482C41.8054 17.5185 39.1162 16.8738 37.0382 18.005L38.2334 20.2008ZM15.4928 34.5482C15.0072 33.7551 15.2624 32.7052 16.1891 32.2008L14.9938 30.005C12.8768 31.1574 12.0892 33.7771 13.3608 35.8537L15.4928 34.5482ZM14.9517 38.4518C16.1946 40.4815 18.8838 41.1262 20.9618 39.995L19.7666 37.7992C18.8009 38.3249 17.5981 37.9863 17.0837 37.1463L14.9517 38.4518ZM38.0643 20.2928L38.2334 20.2008L37.0382 18.005L36.869 18.0971L38.0643 20.2928ZM19.7666 20.2007L19.9357 20.2928L21.131 18.0971L20.9618 18.005L19.7666 20.2007ZM38.2334 37.7992L38.0643 37.7072L36.869 39.9029L37.0382 39.995L38.2334 37.7992ZM19.9357 37.7072L19.7666 37.7992L20.9618 39.995L21.131 39.9029L19.9357 37.7072ZM14.9938 27.995C15.7901 28.4284 15.7901 29.5716 14.9938 30.005L16.1891 32.2008C18.725 30.8203 18.725 27.1797 16.1891 25.7992L14.9938 27.995ZM21.131 39.9029C21.9633 39.4498 22.9773 40.0523 22.9773 41H25.4773C25.4773 38.1556 22.4339 36.3473 19.9357 37.7072L21.131 39.9029ZM35.0227 41C35.0227 40.0523 36.0367 39.4498 36.869 39.9029L38.0643 37.7072C35.5661 36.3472 32.5227 38.1556 32.5227 41H35.0227ZM43.0062 30.005C42.21 29.5716 42.21 28.4284 43.0062 27.995L41.8109 25.7992C39.275 27.1797 39.275 30.8203 41.8109 32.2007L43.0062 30.005ZM19.9357 20.2928C22.4339 21.6527 25.4773 19.8444 25.4773 17H22.9773C22.9773 17.9477 21.9633 18.5502 21.131 18.0971L19.9357 20.2928ZM36.869 18.0971C36.0367 18.5502 35.0227 17.9477 35.0227 17H32.5227C32.5227 19.8444 35.5661 21.6528 38.0643 20.2928L36.869 18.0971ZM32.75 29C32.75 31.0711 31.0711 32.75 29 32.75V35.25C32.4518 35.25 35.25 32.4518 35.25 29H32.75ZM29 32.75C26.9289 32.75 25.25 31.0711 25.25 29H22.75C22.75 32.4518 25.5482 35.25 29 35.25V32.75ZM25.25 29C25.25 26.9289 26.9289 25.25 29 25.25V22.75C25.5482 22.75 22.75 25.5482 22.75 29H25.25ZM29 25.25C31.0711 25.25 32.75 26.9289 32.75 29H35.25C35.25 25.5482 32.4518 22.75 29 22.75V25.25Z" fill="#EEE1E2"/>
</svg>
